<?xml version="1.0" encoding="UTF-8" standalone="no"?>
<svg xmlns="http://www.w3.org/2000/svg" width="48" height="48" viewBox="0 0 48 48">
  <!-- Background circle -->
  <circle cx="24" cy="24" r="22" fill="#2D3748" />
  <circle cx="24" cy="24" r="20" fill="#4A5568" />
  
  <!-- CPU indicator (upper left) -->
  <g transform="translate(8, 8)">
    <rect x="0" y="0" width="12" height="12" rx="2" fill="#3182CE" />
    <rect x="2" y="2" width="8" height="8" rx="1" fill="#63B3ED" />
    <rect x="3" y="5" width="6" height="2" fill="#3182CE" />
  </g>
  
  <!-- Memory indicator (upper right) -->
  <g transform="translate(28, 8)">
    <rect x="0" y="0" width="12" height="12" rx="2" fill="#38A169" />
    <rect x="2" y="2" width="8" height="2" fill="#68D391" />
    <rect x="2" y="5" width="8" height="2" fill="#68D391" />
    <rect x="2" y="8" width="8" height="2" fill="#68D391" />
  </g>
  
  <!-- Disk indicator (bottom left) -->
  <g transform="translate(8, 28)">
    <rect x="0" y="0" width="12" height="12" rx="2" fill="#DD6B20" />
    <circle cx="6" cy="6" r="4" fill="#F6AD55" />
    <circle cx="6" cy="6" r="1" fill="#DD6B20" />
  </g>
  
  <!-- Network indicator (bottom right) -->
  <g transform="translate(28, 28)">
    <rect x="0" y="0" width="12" height="12" rx="2" fill="#805AD5" />
    <path d="M3,6 L9,6 M6,3 L6,9 M3,3 L9,9 M9,3 L3,9" stroke="#B794F4" stroke-width="1.5" />
  </g>
  
  <!-- Central connecting lines -->
  <path d="M20,14 L28,14 M20,34 L28,34 M14,20 L14,28 M34,20 L34,28" stroke="#A0AEC0" stroke-width="1.5" />
  
  <!-- Center circle -->
  <circle cx="24" cy="24" r="4" fill="#E2E8F0" />
  <circle cx="24" cy="24" r="2" fill="#4A5568" />
</svg>